<mxfile host="Electron" modified="2023-10-20T10:06:02.167Z" agent="Mozilla/5.0 (Windows NT 10.0; Win64; x64) AppleWebKit/537.36 (KHTML, like Gecko) draw.io/22.0.3 Chrome/114.0.5735.289 Electron/25.8.4 Safari/537.36" etag="gLHkjiILYRHG0wfztv1f" version="22.0.3" type="device">
  <diagram name="Page-1" id="B2SHCMkdm4aLusyrsQGF">
    <mxGraphModel dx="993" dy="639" grid="1" gridSize="10" guides="1" tooltips="1" connect="1" arrows="1" fold="1" page="1" pageScale="1" pageWidth="827" pageHeight="1169" math="0" shadow="0">
      <root>
        <mxCell id="0" />
        <mxCell id="1" parent="0" />
        <mxCell id="MwQLpnIS52IHnqAtrCd0-7" value="Pages membres avec la liste des jeux disponibles" style="rounded=0;whiteSpace=wrap;html=1;" vertex="1" parent="1">
          <mxGeometry x="40" y="260" width="120" height="60" as="geometry" />
        </mxCell>
        <mxCell id="MwQLpnIS52IHnqAtrCd0-8" value="Page administrateur avec la liste des jeux" style="rounded=0;whiteSpace=wrap;html=1;" vertex="1" parent="1">
          <mxGeometry x="420" y="260" width="120" height="60" as="geometry" />
        </mxCell>
        <mxCell id="MwQLpnIS52IHnqAtrCd0-9" value="Page d&#39;nscription" style="rounded=0;whiteSpace=wrap;html=1;" vertex="1" parent="1">
          <mxGeometry x="620" y="140" width="120" height="60" as="geometry" />
        </mxCell>
        <mxCell id="MwQLpnIS52IHnqAtrCd0-14" value="Page des créneaux et de la description d&#39;un jeu" style="rounded=0;whiteSpace=wrap;html=1;" vertex="1" parent="1">
          <mxGeometry x="40" y="400" width="120" height="60" as="geometry" />
        </mxCell>
        <mxCell id="MwQLpnIS52IHnqAtrCd0-15" value="" style="group" vertex="1" connectable="0" parent="1">
          <mxGeometry x="240" y="20" width="120" height="180" as="geometry" />
        </mxCell>
        <mxCell id="MwQLpnIS52IHnqAtrCd0-5" value="Page d&#39;accueil" style="rounded=0;whiteSpace=wrap;html=1;" vertex="1" parent="MwQLpnIS52IHnqAtrCd0-15">
          <mxGeometry width="120" height="60" as="geometry" />
        </mxCell>
        <mxCell id="MwQLpnIS52IHnqAtrCd0-6" value="Page de connexion" style="rounded=0;whiteSpace=wrap;html=1;" vertex="1" parent="MwQLpnIS52IHnqAtrCd0-15">
          <mxGeometry y="120" width="120" height="60" as="geometry" />
        </mxCell>
        <mxCell id="MwQLpnIS52IHnqAtrCd0-10" value="" style="endArrow=classic;html=1;rounded=0;exitX=0.5;exitY=1;exitDx=0;exitDy=0;entryX=0.5;entryY=0;entryDx=0;entryDy=0;" edge="1" parent="MwQLpnIS52IHnqAtrCd0-15" source="MwQLpnIS52IHnqAtrCd0-5" target="MwQLpnIS52IHnqAtrCd0-6">
          <mxGeometry relative="1" as="geometry">
            <mxPoint x="-10" y="290" as="sourcePoint" />
            <mxPoint x="150" y="290" as="targetPoint" />
          </mxGeometry>
        </mxCell>
        <mxCell id="MwQLpnIS52IHnqAtrCd0-11" value="Se connecter" style="edgeLabel;resizable=0;html=1;align=center;verticalAlign=middle;" connectable="0" vertex="1" parent="MwQLpnIS52IHnqAtrCd0-10">
          <mxGeometry relative="1" as="geometry" />
        </mxCell>
        <mxCell id="MwQLpnIS52IHnqAtrCd0-16" value="Page des créneaux avec la liste des joueurs" style="rounded=0;whiteSpace=wrap;html=1;" vertex="1" parent="1">
          <mxGeometry x="420" y="400" width="120" height="60" as="geometry" />
        </mxCell>
        <mxCell id="MwQLpnIS52IHnqAtrCd0-23" value="" style="endArrow=classic;startArrow=classic;html=1;rounded=0;exitX=1;exitY=0.5;exitDx=0;exitDy=0;entryX=0;entryY=0.5;entryDx=0;entryDy=0;" edge="1" parent="1" source="MwQLpnIS52IHnqAtrCd0-7" target="MwQLpnIS52IHnqAtrCd0-8">
          <mxGeometry width="50" height="50" relative="1" as="geometry">
            <mxPoint x="380" y="350" as="sourcePoint" />
            <mxPoint x="430" y="300" as="targetPoint" />
          </mxGeometry>
        </mxCell>
        <mxCell id="MwQLpnIS52IHnqAtrCd0-24" value="" style="endArrow=none;html=1;rounded=0;exitX=0.5;exitY=1;exitDx=0;exitDy=0;" edge="1" parent="1" source="MwQLpnIS52IHnqAtrCd0-6">
          <mxGeometry width="50" height="50" relative="1" as="geometry">
            <mxPoint x="380" y="350" as="sourcePoint" />
            <mxPoint x="300" y="290" as="targetPoint" />
          </mxGeometry>
        </mxCell>
        <mxCell id="MwQLpnIS52IHnqAtrCd0-25" value="" style="endArrow=classic;html=1;rounded=0;exitX=1;exitY=0.5;exitDx=0;exitDy=0;entryX=0;entryY=0.5;entryDx=0;entryDy=0;" edge="1" parent="1" source="MwQLpnIS52IHnqAtrCd0-6" target="MwQLpnIS52IHnqAtrCd0-9">
          <mxGeometry width="50" height="50" relative="1" as="geometry">
            <mxPoint x="380" y="350" as="sourcePoint" />
            <mxPoint x="430" y="300" as="targetPoint" />
          </mxGeometry>
        </mxCell>
        <mxCell id="MwQLpnIS52IHnqAtrCd0-26" value="" style="endArrow=classic;html=1;rounded=0;exitX=0.5;exitY=1;exitDx=0;exitDy=0;" edge="1" parent="1" source="MwQLpnIS52IHnqAtrCd0-8" target="MwQLpnIS52IHnqAtrCd0-16">
          <mxGeometry width="50" height="50" relative="1" as="geometry">
            <mxPoint x="380" y="350" as="sourcePoint" />
            <mxPoint x="430" y="300" as="targetPoint" />
          </mxGeometry>
        </mxCell>
        <mxCell id="MwQLpnIS52IHnqAtrCd0-27" value="" style="endArrow=classic;html=1;rounded=0;exitX=0.5;exitY=1;exitDx=0;exitDy=0;entryX=0.5;entryY=0;entryDx=0;entryDy=0;" edge="1" parent="1" source="MwQLpnIS52IHnqAtrCd0-7" target="MwQLpnIS52IHnqAtrCd0-14">
          <mxGeometry width="50" height="50" relative="1" as="geometry">
            <mxPoint x="390" y="360" as="sourcePoint" />
            <mxPoint x="440" y="310" as="targetPoint" />
          </mxGeometry>
        </mxCell>
        <mxCell id="MwQLpnIS52IHnqAtrCd0-28" value="Page d&#39;ajout des nouveaux jeux" style="rounded=0;whiteSpace=wrap;html=1;" vertex="1" parent="1">
          <mxGeometry x="680" y="260" width="120" height="60" as="geometry" />
        </mxCell>
        <mxCell id="MwQLpnIS52IHnqAtrCd0-29" value="" style="endArrow=classic;html=1;rounded=0;entryX=0;entryY=0.5;entryDx=0;entryDy=0;exitX=1;exitY=0.5;exitDx=0;exitDy=0;" edge="1" parent="1" source="MwQLpnIS52IHnqAtrCd0-8" target="MwQLpnIS52IHnqAtrCd0-28">
          <mxGeometry width="50" height="50" relative="1" as="geometry">
            <mxPoint x="380" y="350" as="sourcePoint" />
            <mxPoint x="430" y="300" as="targetPoint" />
          </mxGeometry>
        </mxCell>
      </root>
    </mxGraphModel>
  </diagram>
</mxfile>
